<?xml version="1.0" encoding="iso-8859-1"?>
<!-- Generator: Adobe Illustrator 19.0.0, SVG Export Plug-In . SVG Version: 6.00 Build 0)  -->
<svg xmlns="http://www.w3.org/2000/svg" xmlns:xlink="http://www.w3.org/1999/xlink" version="1.1" id="Capa_1" x="0px" y="0px" viewBox="0 0 512 512" style="enable-background:new 0 0 512 512;" xml:space="preserve" width="512px" height="512px">
<g>
	<g>
		<polygon points="30,482 30,0 0,0 0,512 512,512 512,482   " fill="#D80027"/>
	</g>
</g>
<g>
	<g>
		<rect x="206" y="200" width="120" height="252" fill="#D80027"/>
	</g>
</g>
<g>
	<g>
		<rect x="356" y="250" width="120" height="202" fill="#D80027"/>
	</g>
</g>
<g>
	<g>
		<rect x="56" y="310" width="120" height="142" fill="#D80027"/>
	</g>
</g>
<g>
	<g>
		<path d="M421,136c-16.051,0-30.157,8.454-38.125,21.136l-72.491-34.52C306.85,101.305,288.298,85,266,85    c-23.656,0-43.093,18.352-44.856,41.564l-90.011,71.061C126.401,195.93,121.308,195,116,195c-24.813,0-45,20.187-45,45    s20.187,45,45,45s45-20.187,45-45c0-8.321-2.279-16.117-6.233-22.81l75.634-59.711C238.638,168.126,251.528,175,266,175    c16.376,0,30.732-8.795,38.605-21.907l71.846,34.212C379.527,209.142,398.327,226,421,226c24.813,0,45-20.187,45-45    S445.813,136,421,136z M116,255c-8.271,0-15-6.729-15-15s6.729-15,15-15s15,6.729,15,15S124.271,255,116,255z M266,145    c-8.271,0-15-6.729-15-15s6.729-15,15-15s15,6.729,15,15S274.271,145,266,145z M421,196c-8.271,0-15-6.729-15-15s6.729-15,15-15    s15,6.729,15,15S429.271,196,421,196z" fill="#D80027"/>
	</g>
</g>
<g>
</g>
<g>
</g>
<g>
</g>
<g>
</g>
<g>
</g>
<g>
</g>
<g>
</g>
<g>
</g>
<g>
</g>
<g>
</g>
<g>
</g>
<g>
</g>
<g>
</g>
<g>
</g>
<g>
</g>
</svg>