<?xml version="1.0"?>
<svg xmlns="http://www.w3.org/2000/svg" height="512px" viewBox="-29 0 800 800" width="512px"><path d="m642.855469 500c-23.667969 0-42.855469 19.1875-42.855469 42.855469.023438 6.363281 1.488281 12.644531 4.28125 18.355469l56.929688-56.929688c-5.710938-2.792969-11.992188-4.257812-18.355469-4.28125zm0 0" fill="#FFFFFF"/><path d="m642.855469 285.710938c-23.667969 0-42.855469 19.191406-42.855469 42.859374.023438 6.367188 1.488281 12.640626 4.28125 18.359376l56.929688-56.929688c-5.710938-2.792969-11.992188-4.261719-18.355469-4.289062zm0 0" fill="#FFFFFF"/><path d="m624.496094 581.425781c5.722656 2.796875 11.996094 4.261719 18.359375 4.285157 23.671875 0 42.855469-19.183594 42.855469-42.855469-.023438-6.363281-1.488282-12.636719-4.285157-18.359375zm0 0" fill="#FFFFFF"/><path d="m314.289062 28.570312v28.570313h64.6875c43.140626.054687 78.109376 35.023437 78.164063 78.171875v75.601562c-.03125 25.515626-20.710937 46.195313-46.226563 46.226563h-36.851562c6.023438 17.0625 22.128906 28.5 40.226562 28.570313 18.945313-.015626 37.125 7.5 50.523438 20.90625 13.40625 13.398437 20.925781 31.578124 20.898438 50.523437v300h28.578124v-657.140625h-171.429687c-15.785156 0-28.570313 12.792969-28.570313 28.570312zm0 0" fill="#FFFFFF"/><path d="m46.230469 228.570312h364.683593c9.746094-.007812 17.648438-7.910156 17.65625-17.65625v-75.601562c-.035156-27.378906-22.222656-49.5625-49.59375-49.601562h-300.804687c-27.375.039062-49.558594 22.222656-49.601563 49.601562v75.601562c.007813 9.746094 7.910157 17.648438 17.660157 17.65625zm310.910156-85.714843c0-7.890625 6.394531-14.285157 14.289063-14.285157 7.890624 0 14.28125 6.394532 14.28125 14.285157v42.855469c0 7.890624-6.390626 14.289062-14.28125 14.289062-7.894532 0-14.289063-6.398438-14.289063-14.289062zm-57.140625 0c0-7.890625 6.398438-14.285157 14.289062-14.285157 7.882813 0 14.28125 6.394532 14.28125 14.285157v42.855469c0 7.890624-6.398437 14.289062-14.28125 14.289062-7.890624 0-14.289062-6.398438-14.289062-14.289062zm-57.140625 0c0-7.890625 6.398437-14.285157 14.285156-14.285157 7.890625 0 14.285157 6.394532 14.285157 14.285157v42.855469c0 7.890624-6.394532 14.289062-14.285157 14.289062-7.886719 0-14.285156-6.398438-14.285156-14.289062zm-57.148437 0c0-7.890625 6.398437-14.285157 14.289062-14.285157s14.289062 6.394532 14.289062 14.285157v42.855469c0 7.890624-6.398437 14.289062-14.289062 14.289062s-14.289062-6.398438-14.289062-14.289062zm-57.140626 0c0-7.890625 6.394532-14.285157 14.289063-14.285157 7.886719 0 14.285156 6.394532 14.285156 14.285157v42.855469c0 7.890624-6.398437 14.289062-14.285156 14.289062-7.894531 0-14.289063-6.398438-14.289063-14.289062zm-57.140624 0c0-7.890625 6.398437-14.285157 14.28125-14.285157 7.890624 0 14.289062 6.394532 14.289062 14.285157v42.855469c0 7.890624-6.398438 14.289062-14.289062 14.289062-7.882813 0-14.28125-6.398438-14.28125-14.289062zm0 0" fill="#FFFFFF"/><path d="m414.289062 314.289062c-33.9375-.046874-63.164062-23.914062-70-57.148437h-231.429687c-6.679687 33.050781-35.597656 56.890625-69.3125 57.148437-23.796875-.03125-43.191406 19.066407-43.546875 42.851563v400c0 23.671875 19.1875 42.859375 42.859375 42.859375h371.429687c23.671876 0 42.851563-19.1875 42.851563-42.859375v-400c.023437-11.367187-4.484375-22.28125-12.527344-30.328125-8.042969-8.042969-18.953125-12.550781-30.324219-12.523438zm14.28125 314.28125c0 23.671876-19.191406 42.859376-42.859374 42.859376h-314.28125c-23.671876 0-42.859376-19.1875-42.859376-42.859376v-171.429687c0-23.667969 19.1875-42.851563 42.859376-42.851563h314.28125c23.667968 0 42.859374 19.183594 42.859374 42.851563zm0 0" fill="#FFFFFF"/><path d="m385.710938 442.855469h-314.28125c-7.890626 0-14.285157 6.398437-14.285157 14.285156v171.429687c0 7.890626 6.394531 14.285157 14.285157 14.285157h314.28125c7.890624 0 14.289062-6.394531 14.289062-14.285157v-171.429687c0-7.886719-6.398438-14.285156-14.289062-14.285156zm-285.710938 28.574219h28.570312c7.894532 0 14.289063 6.398437 14.289063 14.28125 0 7.890624-6.394531 14.289062-14.289063 14.289062h-28.570312c-7.890625 0-14.289062-6.398438-14.289062-14.289062 0-7.882813 6.398437-14.28125 14.289062-14.28125zm0 57.140624h171.429688c7.890624 0 14.28125 6.394532 14.28125 14.285157 0 7.886719-6.390626 14.285156-14.28125 14.285156h-171.429688c-7.890625 0-14.289062-6.398437-14.289062-14.285156 0-7.890625 6.398437-14.285157 14.289062-14.285157zm28.570312 85.71875h-28.570312c-7.890625 0-14.289062-6.398437-14.289062-14.289062s6.398437-14.289062 14.289062-14.289062h28.570312c7.894532 0 14.289063 6.398437 14.289063 14.289062s-6.394531 14.289062-14.289063 14.289062zm228.570313 0h-171.429687c-7.882813 0-14.28125-6.398437-14.28125-14.289062s6.398437-14.289062 14.28125-14.289062h171.429687c7.894531 0 14.289063 6.398437 14.289063 14.289062s-6.394532 14.289062-14.289063 14.289062zm0-57.148437h-28.570313c-7.890624 0-14.28125-6.398437-14.28125-14.285156 0-7.890625 6.390626-14.285157 14.28125-14.285157h28.570313c7.894531 0 14.289063 6.394532 14.289063 14.285157 0 7.886719-6.394532 14.285156-14.289063 14.285156zm0-57.140625h-171.429687c-7.882813 0-14.28125-6.398438-14.28125-14.289062 0-7.882813 6.398437-14.28125 14.28125-14.28125h171.429687c7.894531 0 14.289063 6.398437 14.289063 14.28125 0 7.890624-6.394532 14.289062-14.289063 14.289062zm0 0" fill="#FFFFFF"/><path d="m642.855469 71.429688c-23.667969 0-42.855469 19.191406-42.855469 42.859374.023438 6.359376 1.488281 12.640626 4.28125 18.351563l56.929688-56.929687c-5.710938-2.789063-11.992188-4.257813-18.355469-4.28125zm0 0" fill="#FFFFFF"/><path d="m624.496094 152.855469c5.722656 2.792969 11.996094 4.257812 18.359375 4.285156 23.671875 0 42.855469-19.179687 42.855469-42.851563-.023438-6.367187-1.488282-12.644531-4.285157-18.359374zm0 0" fill="#FFFFFF"/><path d="m714.289062 0h-171.433593v657.140625h171.433593c15.773438 0 28.566407-12.796875 28.566407-28.570313v-600c0-15.777343-12.792969-28.570312-28.566407-28.570312zm-71.433593 614.289062c-18.714844-.007812-36.683594-7.382812-50-20.542968-.15625-.148438-.371094-.207032-.527344-.363282-.160156-.148437-.214844-.371093-.355469-.527343-27.25-27.957031-26.964844-72.636719.640625-100.242188s72.285157-27.890625 100.242188-.640625c.15625.140625.378906.195313.527343.355469.15625.15625.214844.371094.363282.527344 20.199218 20.496093 26.113281 51.121093 14.988281 77.65625-11.121094 26.542969-37.097656 43.804687-65.878906 43.777343zm0-214.289062c-18.714844-.003906-36.683594-7.386719-50-20.546875-.15625-.136719-.371094-.199219-.527344-.351563-.160156-.160156-.214844-.371093-.355469-.53125-27.25-27.960937-26.964844-72.632812.640625-100.242187s72.285157-27.894531 100.242188-.640625c.15625.140625.378906.199219.527343.359375.15625.152344.214844.367187.363282.523437 20.199218 20.496094 26.113281 51.117188 14.988281 77.660157-11.121094 26.539062-37.097656 43.800781-65.878906 43.769531zm0-214.289062c-18.714844 0-36.683594-7.386719-50-20.539063-.15625-.148437-.371094-.203125-.527344-.359375-.160156-.160156-.214844-.375-.355469-.523438-27.25-27.964843-26.964844-72.640624.640625-100.246093s72.285157-27.890625 100.242188-.644531c.15625.148437.378906.199218.527343.355468.15625.160156.214844.378906.363282.535156 20.199218 20.484376 26.113281 51.117188 14.988281 77.65625-11.121094 26.539063-37.097656 43.800782-65.878906 43.765626zm0 0" fill="#FFFFFF"/><path d="m624.496094 367.144531c5.722656 2.796875 11.996094 4.261719 18.359375 4.285157 23.671875 0 42.855469-19.1875 42.855469-42.859376-.023438-6.367187-1.488282-12.640624-4.285157-18.355468zm0 0" fill="#FFFFFF"/></svg>