<?xml version="1.0" encoding="iso-8859-1"?>
<!-- Generator: Adobe Illustrator 19.0.0, SVG Export Plug-In . SVG Version: 6.00 Build 0)  -->
<svg xmlns="http://www.w3.org/2000/svg" xmlns:xlink="http://www.w3.org/1999/xlink" version="1.1" id="Capa_1" x="0px" y="0px" viewBox="0 0 512 512" style="enable-background:new 0 0 512 512;" xml:space="preserve" width="512px" height="512px">
<g>
	<g>
		<path d="M449.299,226.4c1.501-9.6,2.701-21.501,2.701-31.7C452,92.4,372.499,8.1,272,0.299V90.9c50.7,7.2,90,51,90,103.801    c0,3.6-0.3,9.2-0.601,12.8l71.4,71.4c3.6-7.2,6.601-14.399,9-21.899c25.589,16.747,40.201,45.396,40.201,74.7    c0,50.149-41.311,90-90,90H120c-49.271,0-90-40.455-90-90c0-29.303,14.612-57.953,40.201-74.7c2.399,7.5,5.4,14.7,9,21.899    l71.4-71.4c-0.3-3.6-0.601-9.2-0.601-12.8c0-52.8,39.3-96.601,90-103.801V0.299C139.501,8.1,60,92.4,60,194.701    c0,10.199,1.199,22.099,2.701,31.7C22.606,248.492,0,289.439,0,331.701c0,66.212,54.248,120,120,120h70.8l-7.5,30H165    c-8.401,0-15,6.599-15,15c0,8.399,6.599,15,15,15h182c8.401,0,15-6.601,15-15c0-8.401-6.599-15-15-15h-18.3l-7.5-30H392    c65.796,0,120-53.817,120-120C512,290.538,490.326,249.005,449.299,226.4z" fill="#00694d"/>
	</g>
</g>
<g>
	<g>
		<path d="M352.4,240.8c-0.301,0.6-0.601,1.201-0.899,1.8c-4.306-1.717-188.398-1.038-191.001,0c-0.298-0.599-0.599-1.199-0.599-1.8    L98.7,301.701h314.601L352.4,240.8z" fill="#00694d"/>
	</g>
</g>
<g>
	<g>
		<path d="M90,331.701v15c0,24.899,20.099,45,45,45h242c24.901,0,45-20.101,45-45v-15H90z" fill="#00694d"/>
	</g>
</g>
<g>
</g>
<g>
</g>
<g>
</g>
<g>
</g>
<g>
</g>
<g>
</g>
<g>
</g>
<g>
</g>
<g>
</g>
<g>
</g>
<g>
</g>
<g>
</g>
<g>
</g>
<g>
</g>
<g>
</g>
</svg>