<?xml version="1.0" encoding="iso-8859-1"?>
<!-- Generator: Adobe Illustrator 19.0.0, SVG Export Plug-In . SVG Version: 6.00 Build 0)  -->
<svg xmlns="http://www.w3.org/2000/svg" xmlns:xlink="http://www.w3.org/1999/xlink" version="1.1" id="Capa_1" x="0px" y="0px" viewBox="0 0 384 384" style="enable-background:new 0 0 384 384;" xml:space="preserve" width="512px" height="512px">
<g>
	<g>
		<path d="M373.728,191.844c-0.08-0.392-0.216-0.76-0.32-1.144c-0.056-0.176-0.096-0.376-0.152-0.552    c-0.04-0.128-0.088-0.248-0.128-0.368c-0.152-0.456-0.28-0.912-0.48-1.344c-11.32-34.944-32.184-65.76-60.528-89.176    c-33.808-27.888-76.416-43.256-119.984-43.256c-43.608,0-86.248,15.368-120.072,43.272c-28.392,23.488-49.28,54.368-60.552,89.272    c-0.104,0.248-0.176,0.504-0.264,0.752c-0.088,0.264-0.192,0.52-0.28,0.784c-0.12,0.368-0.216,0.8-0.328,1.168    c-0.04,0.168-0.104,0.328-0.144,0.504c-5.912,19.584-8.632,47.776-8.632,66.208c0,8.832,7.168,16,16,16h126.464    c6.656,20.28,25.552,34.968,47.8,34.968c22.224,0,41.096-14.688,47.736-34.968h126.464c8.84,0,16.008-7.16,16.008-16    C382.336,239.54,379.608,211.356,373.728,191.844z M192.128,276.932c-10.136,0-18.384-8.504-18.384-18.968    c0-1.448,0.2-2.864,0.512-4.24c0.104-0.464,0.272-0.896,0.408-1.336c0.264-0.88,0.576-1.736,0.96-2.56    c0.24-0.512,0.512-1.008,0.792-1.496c0.408-0.704,0.88-1.368,1.376-2.016c0.344-0.448,0.68-0.912,1.064-1.32    c0.848-0.912,1.768-1.752,2.8-2.48c0.072-0.056,0.128-0.12,0.208-0.176c1.472-0.992,3.064-1.72,4.688-2.24    c0.176-0.056,0.352-0.12,0.528-0.168c3.288-0.952,6.744-0.944,9.984-0.032c0.24,0.072,0.48,0.152,0.72,0.232    c1.288,0.424,2.504,1.048,3.672,1.768c0.272,0.168,0.576,0.232,0.84,0.416c1.168,0.8,2.192,1.744,3.128,2.768    c0.288,0.32,0.536,0.664,0.808,1c0.592,0.744,1.136,1.528,1.616,2.352c0.248,0.424,0.48,0.864,0.696,1.312    c0.416,0.872,0.744,1.776,1.016,2.712c0.128,0.416,0.28,0.824,0.376,1.256c0.312,1.384,0.512,2.808,0.512,4.256    C210.448,268.428,202.232,276.932,192.128,276.932z M239.896,241.956L239.896,241.956c-0.08-0.24-0.216-0.464-0.304-0.712    c-0.032-0.088-0.064-0.176-0.096-0.264c-0.232-0.664-0.456-1.328-0.72-1.976c-0.464-1.168-0.992-2.304-1.544-3.432    c-0.056-0.112-0.096-0.232-0.16-0.344c-0.112-0.224-0.192-0.456-0.304-0.68c-0.12-0.24-0.24-0.472-0.368-0.712    c-0.816-1.528-1.712-3-2.68-4.432c-0.272-0.4-0.56-0.792-0.84-1.184c-0.208-0.288-0.448-0.552-0.656-0.84    c-0.016-0.024-0.032-0.04-0.048-0.064c-0.584-0.776-1.168-1.544-1.792-2.288c-0.584-0.688-1.192-1.36-1.816-2.024    c-0.288-0.304-0.544-0.632-0.832-0.928c-0.008-0.008-0.024-0.024-0.032-0.032c-0.4-0.408-0.84-0.768-1.256-1.16    c-0.384-0.36-0.728-0.768-1.128-1.128l-17.792-63.552c-1.936-6.904-8.224-11.688-15.4-11.688c0,0,0,0-0.008,0    c-7.168,0-13.464,4.776-15.4,11.672l-17.856,63.568c-0.456,0.408-0.848,0.872-1.288,1.288c-0.352,0.336-0.728,0.64-1.072,0.992    c-0.016,0.016-0.032,0.04-0.048,0.056c-0.248,0.248-0.464,0.528-0.704,0.776c-0.696,0.728-1.368,1.472-2.016,2.24    c-0.544,0.648-1.056,1.328-1.568,2c-0.096,0.128-0.208,0.256-0.304,0.384c-0.168,0.232-0.36,0.44-0.528,0.672    c-0.304,0.424-0.608,0.84-0.904,1.28c-0.944,1.4-1.816,2.848-2.624,4.336c-0.136,0.256-0.272,0.52-0.408,0.784    c-0.088,0.168-0.152,0.352-0.232,0.52c-0.104,0.208-0.192,0.432-0.288,0.648c-0.512,1.056-1.008,2.12-1.448,3.216    c-0.272,0.688-0.512,1.384-0.752,2.08c-0.024,0.072-0.048,0.136-0.072,0.208c-0.088,0.248-0.216,0.472-0.304,0.72H34.472    c0.736-10.304,2.136-21.424,4.152-31.056h29.632c8.832,0,16-7.168,16-16c0-8.832-7.168-16-16-16h-18.6    c7.952-16.768,18.784-31.984,32.008-45.096l14.168,14.408c3.136,3.184,7.272,4.784,11.408,4.784c4.048,0,8.104-1.528,11.224-4.592    c6.296-6.192,6.376-16.328,0.184-22.624l-11.992-12.192c21-13.8,44.552-22.2,69.472-24.712v17.36c0,8.832,7.168,16,16,16    c8.832,0,16-7.168,16-16v-17.32c24.688,2.576,48.496,11.08,69.384,24.704l-11.952,12.152c-6.192,6.296-6.112,16.432,0.184,22.624    c3.112,3.064,7.168,4.592,11.216,4.592c4.136,0,8.272-1.592,11.408-4.784l14.168-14.4c13.208,13.096,24.032,28.304,31.992,45.096    h-19.392c-8.832,0-16,7.168-16,16c0,8.832,7.168,16,16,16h30.424c2.016,9.616,3.416,20.736,4.152,31.056H239.896z" fill="#FFFFFF"/>
	</g>
</g>
<g>
	<g>
		<path d="M121.712,295.996H16c-8.832,0-16,7.168-16,16c0,8.832,7.168,16,16,16h105.712c8.832,0,16-7.168,16-16    C137.712,303.164,130.544,295.996,121.712,295.996z" fill="#FFFFFF"/>
	</g>
</g>
<g>
	<g>
		<path d="M368,295.996H262.288c-8.832,0-16,7.168-16,16c0,8.832,7.168,16,16,16H368c8.832,0,16-7.168,16-16    C384,303.164,376.832,295.996,368,295.996z" fill="#FFFFFF"/>
	</g>
</g>
<g>
</g>
<g>
</g>
<g>
</g>
<g>
</g>
<g>
</g>
<g>
</g>
<g>
</g>
<g>
</g>
<g>
</g>
<g>
</g>
<g>
</g>
<g>
</g>
<g>
</g>
<g>
</g>
<g>
</g>
</svg>